<svg xmlns="http://www.w3.org/2000/svg" xmlns:xlink="http://www.w3.org/1999/xlink" version="1.1" id="ccdiagram" viewBox="-484 231.89 731.29 466.48"><filter id="grayscale"><feColorMatrix type="matrix" values="0.3333 0.3333 0.3333 0 0 0.3333 0.3333 0.3333 0 0 0.3333 0.3333 0.3333 0 0 0 0 0 1 0"/></filter><defs><style type="text/css">@import url('https://fonts.googleapis.com/css?family=Open+Sans:400,700|Inconsolata:400');</style></defs><g><g pointer-events="auto"/><g pointer-events="auto"/><g pointer-events="auto"><g opacity="1"><g id="36d8da43-2cd7-40ce-a156-213d329c80bc"><g><g><polygon points="-112 675, -48 675, 144 564, 144 527, -208 324, -432 453, -432 490" stroke="#f5b720" stroke-width="8" fill="none"/></g><g><polygon points="-208 324, -240 305, -432 416, -432 453" stroke="#f5b720" stroke-width="8" fill="#f5b720"/><text font-family="Inconsolata" font-size="20pt" font-weight="bold" fill="#ffffff" transform="translate(-255 341) matrix(0.707 -0.409 0.707 0.409 0 0)" text-anchor="end">terraform_work...</text><g transform="translate(-240 314) matrix(0.707 0.409 -0.707 0.409 0 0)"><svg width="23" height="32" style="fill: rgb(255, 255, 255);"><svg xmlns="http://www.w3.org/2000/svg" width="23" height="32" viewBox="0 0 23 32"><path d="M19.429 17.143V5.714h-8v20.304c.911-.482 2.375-1.321 3.804-2.446 1.911-1.5 4.196-3.839 4.196-6.429zm3.428-13.714v13.714c0 7.518-10.518 12.268-10.964 12.464a1.049 1.049 0 0 1-.928 0C10.519 29.411.001 24.661.001 17.143V3.429c0-.625.518-1.143 1.143-1.143h20.571c.625 0 1.143.518 1.143 1.143z"/></svg></svg></g></g></g></g></g></g><g/><g pointer-events="auto"/><g/><g pointer-events="auto"/><g pointer-events="auto"/><g pointer-events="none"/><g pointer-events="auto"><g id="e350ab38-41db-4ce7-81ea-deddcf84f9f8-69951f59-37a1-49c8-aee9-33151e9cf33b"><g cursor="cell"><line x1="-250" y1="496" x2="-480" y2="629" stroke="red" stroke-width="8" opacity="0"/><line x1="-250" y1="496" x2="-480" y2="629" stroke="#000000" stroke-width="2" stroke-linecap="round"/><polygon points="-240 490, -266 496, -252 497, -249 505, -240 490" stroke-linejoin="round" fill="#000000" stroke="#000000" stroke-width="1"/></g></g><g id="b7c4f3c9-72a1-49e1-94d1-9111e8bc70ff-f8195fad-7927-4733-a86c-7de5d03f281b"><g cursor="cell"><line x1="-122" y1="570" x2="-336" y2="694" stroke="red" stroke-width="8" opacity="0"/><line x1="-122" y1="570" x2="-336" y2="694" stroke="#000000" stroke-width="2" stroke-linecap="round"/><polygon points="-112 564, -138 570, -124 571, -121 579, -112 564" stroke-linejoin="round" fill="#000000" stroke="#000000" stroke-width="1"/></g></g></g><g pointer-events="auto"><g opacity="1"><g id="b6b7a0eb-d2f9-43a3-b30c-7f72be069c36" transform="translate(0 0)"><svg x="13" y="231" height="115.695" width="100.625" viewBox="0 0 26.624 30.611"><g fill-rule="evenodd"><path d="M13.312.306v15l12.99-7.5z" fill="#4286c5" stroke-width=".265"/><path d="M.322 7.806l12.99 7.5v-15z" fill="#26527b" stroke-width=".265"/><path d="M13.312.306v15" fill="none" stroke="#b7d1e9" stroke-width=".265"/><path d="M13.312 15.306l12.99-7.5-6.495 18.75-6.495 3.75z" fill="#26527b" stroke-width=".265"/><path d="M.322 7.806l12.99 7.5v15l-6.495-3.75z" fill="#326ca2" stroke-width=".265"/><path d="M.322 7.806l12.99 7.5 12.99-7.5-12.99 7.5v15" fill="none" stroke="#deeaf5" stroke-width=".265"/><path d="M13.312.306l-12.99 7.5 6.495 18.75 6.495 3.75 6.495-3.75 6.495-18.75z" fill="none" stroke="#000000" stroke-width=".529"/></g></svg></g></g><g opacity="1"><g id="e350ab38-41db-4ce7-81ea-deddcf84f9f8" transform="translate(0 0)"><svg x="-272" y="398" height="111" width="128" fill-rule="evenodd"><path d="M64 74v37l64-37V37L64 74z" fill="#b8b8bb"/><path d="M0 37v37l64 37V74L0 37z" fill="#d2d2d4"/><path d="M0 37L64 0l64 37-64 37L0 37z" fill="#ececed"/><path d="M64 73.407l62.111-35.86.514.889-62.487 36.078h-.276L.743 38.072l.514-.89L64 73.407z" fill="#83838a"/><path d="M63.486 74h1.027v36h-1.027z" fill="#83838a"/><path d="M128 37v37l-64 37L0 74V37L64 0l64 37zM2.054 38.185v34.63L64 108.627l61.946-35.812v-34.63L64 2.373 2.054 38.185z" fill="#000000"/></svg><svg x="-214" y="416" width="54" height="36" style="overflow: visible; cursor: default;"><rect transform="matrix(0.707 0.409 -0.707 0.409 0 0)" width="54" height="36" rx="5" ry="5" fill="#4286c5"/><text transform="matrix(0.707 0.409 -0.707 0.409 0 0)" font-family="Open Sans" text-anchor="middle" x="50%" font-weight="normal" font-size="20pt" y="80%" fill="#ffffff"><tspan>T2</tspan></text></svg></g></g><g opacity="1"><g id="b7c4f3c9-72a1-49e1-94d1-9111e8bc70ff" transform="translate(0 0)"><svg x="-144" y="472" height="111" width="128" fill-rule="evenodd"><path d="M64 74v37l64-37V37L64 74z" fill="#b8b8bb"/><path d="M0 37v37l64 37V74L0 37z" fill="#d2d2d4"/><path d="M0 37L64 0l64 37-64 37L0 37z" fill="#ececed"/><path d="M64 73.407l62.111-35.86.514.889-62.487 36.078h-.276L.743 38.072l.514-.89L64 73.407z" fill="#83838a"/><path d="M63.486 74h1.027v36h-1.027z" fill="#83838a"/><path d="M128 37v37l-64 37L0 74V37L64 0l64 37zM2.054 38.185v34.63L64 108.627l61.946-35.812v-34.63L64 2.373 2.054 38.185z" fill="#000000"/></svg><svg x="-86" y="490" width="54" height="36" style="overflow: visible; cursor: default;"><rect transform="matrix(0.707 0.409 -0.707 0.409 0 0)" width="54" height="36" rx="5" ry="5" fill="#4286c5"/><text transform="matrix(0.707 0.409 -0.707 0.409 0 0)" font-family="Open Sans" text-anchor="middle" x="50%" font-weight="normal" font-size="20pt" y="80%" fill="#ffffff"><tspan>T2</tspan></text></svg></g></g></g><g pointer-events="auto"/><g pointer-events="auto"/><g pointer-events="auto"><g opacity="1"><g id="ce23b448-6d3d-41f5-b143-a79c4e5fda18" transform="translate(0 0)"><svg x="-384" y="481" overflow="visible"><text stroke="#ffffff" stroke-width="4" font-family="Open Sans" y="36.5" font-size="25pt" fill="#ff9800" font-weight="bold" transform="matrix(0.707 0.409 -0.707 0.409 0 0)" xml:space="preserve"><tspan x="8" dy="0">terraform-workshop-asg</tspan></text><text font-family="Open Sans" y="36.5" font-size="25pt" fill="#ff9800" font-weight="bold" transform="matrix(0.707 0.409 -0.707 0.409 0 0)" xml:space="preserve"><tspan x="8" dy="0">terraform-workshop-asg</tspan></text></svg></g></g><g opacity="1"><g id="da546b49-42af-4576-a0d4-261f660bb296" transform="translate(0 0)"><svg x="-80" y="268" overflow="visible"><text stroke="#ffffff" stroke-width="4" font-family="Open Sans" y="36.5" font-size="25pt" fill="#4286c5" font-weight="bold" transform="matrix(0.707 0.409 -0.707 0.409 0 0)" xml:space="preserve"><tspan x="8" dy="0">ramp-up-devops-psl</tspan></text><text font-family="Open Sans" y="36.5" font-size="25pt" fill="#4286c5" font-weight="bold" transform="matrix(0.707 0.409 -0.707 0.409 0 0)" xml:space="preserve"><tspan x="8" dy="0">ramp-up-devops-psl</tspan></text></svg></g></g><g opacity="1"><g id="09c8e92b-a9f9-4d74-9aa7-227a33662efb" transform="translate(0 0)"><svg x="-160" y="259" overflow="visible"><text stroke="#ffffff" stroke-width="4" font-family="Open Sans" y="36.5" font-size="25pt" fill="#4286c5" font-weight="bold" transform="matrix(0.707 0.409 -0.707 0.409 0 0)" xml:space="preserve"><tspan x="8" dy="0">stiven.agudeloo/terraform.tfstate</tspan></text><text font-family="Open Sans" y="36.5" font-size="25pt" fill="#4286c5" font-weight="bold" transform="matrix(0.707 0.409 -0.707 0.409 0 0)" xml:space="preserve"><tspan x="8" dy="0">stiven.agudeloo/terraform.tfstate</tspan></text></svg></g></g><g opacity="1"><g id="d6d6433e-1339-457a-a56e-28daedb9825c" transform="translate(0 0)"><svg x="-448" y="500" overflow="visible"><text stroke="#ffffff" stroke-width="4" font-family="Open Sans" y="36.5" font-size="25pt" fill="#000000" font-weight="bold" transform="matrix(0.707 0.409 -0.707 0.409 0 0)" xml:space="preserve"><tspan x="8" dy="0">&lt;instance_public_ip&gt;:5000</tspan></text><text font-family="Open Sans" y="36.5" font-size="25pt" fill="#000000" font-weight="bold" transform="matrix(0.707 0.409 -0.707 0.409 0 0)" xml:space="preserve"><tspan x="8" dy="0">&lt;instance_public_ip&gt;:5000</tspan></text></svg></g></g></g><g pointer-events="auto"><g/><g/><g/><g/><g/><g/><g/><g/><g/></g></g></svg>