<svg xmlns="http://www.w3.org/2000/svg" xmlns:xlink="http://www.w3.org/1999/xlink" version="1.1" id="ccdiagram" viewBox="-573.08 138 1092.36 759.16"><filter id="grayscale"><feColorMatrix type="matrix" values="0.3333 0.3333 0.3333 0 0 0.3333 0.3333 0.3333 0 0 0.3333 0.3333 0.3333 0 0 0 0 0 1 0"/></filter><defs><style type="text/css">@import url('https://fonts.googleapis.com/css?family=Open+Sans:400,700|Inconsolata:400');</style></defs><g><g pointer-events="auto"/><g pointer-events="auto"><g opacity="1"><g id="7aaeb503-e40f-43bb-92f0-09f79d9e8a58"><svg x="128" y="370" overflow="visible"><polygon points="0 0, 192 111, 128 148, -64 37" fill="#f5b720"/><polygon points="0 0, 192 111, 128 148, -64 37" fill="none" stroke-width="20" stroke="#f5b720" opacity="1"/><g cursor="nwse-resize"><polygon points="0 0, -19 -11, 13 -30, -83 -11, -115 44, -83 26, -64 37" fill="#f5b720"/><polygon points="192 111, 211 122, 243 104, 211 159, 115 178, 147 159, 128 148" fill="#f5b720"/></g></svg></g></g></g><g pointer-events="auto"><g opacity="1"><g id="e19d5bc1-ef60-411a-90e0-591d93009667"><g><g><polygon points="-272 823, -208 823, -16 712, -16 675, -240 546, -464 675, -464 712" stroke="#3f51b5" stroke-width="8" fill="none"/></g><g><polygon points="-240 546, -272 527, -464 638, -464 675" stroke="#3f51b5" stroke-width="8" fill="#3f51b5"/><text font-family="Inconsolata" font-size="20pt" font-weight="bold" fill="#ffffff" transform="translate(-287 563) matrix(0.707 -0.409 0.707 0.409 0 0)" text-anchor="end">terraform_work...</text><g transform="translate(-272 536) matrix(0.707 0.409 -0.707 0.409 0 0)"><svg width="23" height="32" style="fill: rgb(255, 255, 255);"><svg xmlns="http://www.w3.org/2000/svg" width="23" height="32" viewBox="0 0 23 32"><path d="M19.429 17.143V5.714h-8v20.304c.911-.482 2.375-1.321 3.804-2.446 1.911-1.5 4.196-3.839 4.196-6.429zm3.428-13.714v13.714c0 7.518-10.518 12.268-10.964 12.464a1.049 1.049 0 0 1-.928 0C10.519 29.411.001 24.661.001 17.143V3.429c0-.625.518-1.143 1.143-1.143h20.571c.625 0 1.143.518 1.143 1.143z"/></svg></svg></g></g></g></g></g><g opacity="1"><g id="36d8da43-2cd7-40ce-a156-213d329c80bc"><g><g><polygon points="224 611, 288 611, 480 500, 480 463, 128 259, -96 389, -96 426" stroke="#f5b720" stroke-width="8" fill="none"/></g><g><polygon points="128 259, 96 241, -96 352, -96 389" stroke="#f5b720" stroke-width="8" fill="#f5b720"/><text font-family="Inconsolata" font-size="20pt" font-weight="bold" fill="#ffffff" transform="translate(81 276) matrix(0.707 -0.409 0.707 0.409 0 0)" text-anchor="end">terraform_work...</text><g transform="translate(96 250) matrix(0.707 0.409 -0.707 0.409 0 0)"><svg width="23" height="32" style="fill: rgb(255, 255, 255);"><svg xmlns="http://www.w3.org/2000/svg" width="23" height="32" viewBox="0 0 23 32"><path d="M19.429 17.143V5.714h-8v20.304c.911-.482 2.375-1.321 3.804-2.446 1.911-1.5 4.196-3.839 4.196-6.429zm3.428-13.714v13.714c0 7.518-10.518 12.268-10.964 12.464a1.049 1.049 0 0 1-.928 0C10.519 29.411.001 24.661.001 17.143V3.429c0-.625.518-1.143 1.143-1.143h20.571c.625 0 1.143.518 1.143 1.143z"/></svg></svg></g></g></g></g></g></g><g/><g pointer-events="auto"/><g/><g pointer-events="auto"/><g pointer-events="auto"/><g pointer-events="none"/><g pointer-events="auto"><g id="5f3d32c7-c4cd-45ef-8c93-ce492182fa83-7aaeb503-e40f-43bb-92f0-09f79d9e8a58"><g><g cursor="cell"><line x1="48" y1="453" x2="85" y2="432" stroke="red" stroke-width="9" opacity="0"/><line x1="48" y1="453" x2="85" y2="432" stroke="#000000" stroke-width="3" stroke-linecap="none"/><polygon points="96 426, 67 432, 82 434, 86 442, 96 426" stroke-linejoin="round" fill="#000000" stroke="#000000" stroke-width="1"/></g><g cursor="cell"><line x1="48" y1="472" x2="48" y2="453" stroke="red" stroke-width="9" opacity="0"/><line x1="48" y1="472" x2="48" y2="453" stroke="#000000" stroke-width="3" stroke-linecap="round"/></g><g cursor="cell"><line x1="176" y1="527" x2="213" y2="506" stroke="red" stroke-width="9" opacity="0"/><line x1="176" y1="527" x2="213" y2="506" stroke="#000000" stroke-width="3" stroke-linecap="none"/><polygon points="224 500, 195 506, 210 508, 214 516, 224 500" stroke-linejoin="round" fill="#000000" stroke="#000000" stroke-width="1"/></g><g cursor="cell"><line x1="144" y1="527" x2="176" y2="527" stroke="red" stroke-width="9" opacity="0"/><line x1="144" y1="527" x2="176" y2="527" stroke="#000000" stroke-width="3" stroke-linecap="round"/></g><g cursor="cell"><line x1="48" y1="472" x2="144" y2="527" stroke="red" stroke-width="9" opacity="0"/><line x1="48" y1="472" x2="144" y2="527" stroke="#000000" stroke-width="3" stroke-linecap="round"/></g><g cursor="cell"><line x1="-191" y1="665" x2="96" y2="500" stroke="red" stroke-width="9" opacity="0"/><line x1="-191" y1="665" x2="96" y2="500" stroke="#000000" stroke-width="3" stroke-linecap="round"/></g></g></g><g id="7aaeb503-e40f-43bb-92f0-09f79d9e8a58-4b8d19a0-6a65-431c-a167-430f08c65422"><g><g cursor="cell"><line x1="192" y1="370" x2="208" y2="361" stroke="red" stroke-width="9" opacity="0"/><line x1="192" y1="370" x2="208" y2="361" stroke="#000000" stroke-width="3" stroke-linecap="none"/></g><g cursor="cell"><line x1="240" y1="361" x2="208" y2="361" stroke="red" stroke-width="9" opacity="0"/><line x1="240" y1="361" x2="208" y2="361" stroke="#000000" stroke-width="3" stroke-linecap="round"/></g><g cursor="cell"><line x1="320" y1="444" x2="336" y2="435" stroke="red" stroke-width="9" opacity="0"/><line x1="320" y1="444" x2="336" y2="435" stroke="#000000" stroke-width="3" stroke-linecap="none"/></g><g cursor="cell"><line x1="336" y1="416" x2="336" y2="435" stroke="red" stroke-width="9" opacity="0"/><line x1="336" y1="416" x2="336" y2="435" stroke="#000000" stroke-width="3" stroke-linecap="round"/></g><g cursor="cell"><line x1="240" y1="361" x2="336" y2="416" stroke="red" stroke-width="9" opacity="0"/><line x1="240" y1="361" x2="336" y2="416" stroke="#000000" stroke-width="3" stroke-linecap="round"/></g><g cursor="cell"><line x1="288" y1="389" x2="304" y2="379" stroke="red" stroke-width="9" opacity="0"/><line x1="288" y1="389" x2="304" y2="379" stroke="#000000" stroke-width="3" stroke-linecap="round"/></g></g></g><g id="4b8d19a0-6a65-431c-a167-430f08c65422-76ad0cd6-620d-4776-b019-b4fe0829d5d8"><g cursor="cell"><line x1="304" y1="379" x2="48" y2="231" stroke="red" stroke-width="9" opacity="0"/><line x1="304" y1="379" x2="48" y2="231" stroke="#000000" stroke-width="3" stroke-linecap="round"/></g></g><g id="c99c33f9-e2d5-4e2a-b73f-32e03750b6e6-76ee1d04-1ad9-47d4-a615-84c62ab22962"><g cursor="cell"><line x1="-144" y1="231" x2="-48" y2="287" stroke="red" stroke-width="9" opacity="0"/><line x1="-144" y1="231" x2="-48" y2="287" stroke="#000000" stroke-width="3" stroke-linecap="round"/></g></g><g id="76ee1d04-1ad9-47d4-a615-84c62ab22962-76ad0cd6-620d-4776-b019-b4fe0829d5d8"><g cursor="cell"><line x1="-48" y1="287" x2="48" y2="231" stroke="red" stroke-width="9" opacity="0"/><line x1="-48" y1="287" x2="48" y2="231" stroke="#000000" stroke-width="3" stroke-linecap="round"/></g></g><g id="5f3d32c7-c4cd-45ef-8c93-ce492182fa83-36371804-5cae-4f9b-953a-3df5908a1333"><g cursor="cell"><line x1="-282" y1="718" x2="-416" y2="796" stroke="red" stroke-width="8" opacity="0"/><line x1="-282" y1="718" x2="-416" y2="796" stroke="#000000" stroke-width="2" stroke-linecap="round"/><polygon points="-272 712, -298 718, -284 719, -281 727, -272 712" stroke-linejoin="round" fill="#000000" stroke="#000000" stroke-width="1"/></g></g></g><g pointer-events="auto"><g opacity="1"><g id="b6b7a0eb-d2f9-43a3-b30c-7f72be069c36" transform="translate(0 0)"><svg x="285" y="148" height="115.695" width="100.625" viewBox="0 0 26.624 30.611"><g fill-rule="evenodd"><path d="M13.312.306v15l12.99-7.5z" fill="#4286c5" stroke-width=".265"/><path d="M.322 7.806l12.99 7.5v-15z" fill="#26527b" stroke-width=".265"/><path d="M13.312.306v15" fill="none" stroke="#b7d1e9" stroke-width=".265"/><path d="M13.312 15.306l12.99-7.5-6.495 18.75-6.495 3.75z" fill="#26527b" stroke-width=".265"/><path d="M.322 7.806l12.99 7.5v15l-6.495-3.75z" fill="#326ca2" stroke-width=".265"/><path d="M.322 7.806l12.99 7.5 12.99-7.5-12.99 7.5v15" fill="none" stroke="#deeaf5" stroke-width=".265"/><path d="M13.312.306l-12.99 7.5 6.495 18.75 6.495 3.75 6.495-3.75 6.495-18.75z" fill="none" stroke="#000000" stroke-width=".529"/></g></svg></g></g><g opacity="1"><g id="c99c33f9-e2d5-4e2a-b73f-32e03750b6e6" transform="translate(0 0)"><g><polygon points="-176 139, -112 176, -176 213, -240 176" fill="#8bc34a"/><polygon points="-240 213, -176 250, -176 213, -240 176" fill="#71a436" stroke="#edf6e3"/><polygon points="-176 250, -112 213, -112 176, -176 213" fill="#577d2a" stroke="#edf6e3"/><polygon points="-176 139, -240 176, -240 213, -176 250, -112 213, -112 176" fill="none" stroke="#000000" stroke-width="2"/></g></g></g><g opacity="1"><g id="e350ab38-41db-4ce7-81ea-deddcf84f9f8" transform="translate(0 0)"><svg x="64" y="333" height="111" width="128" fill-rule="evenodd"><path d="M64 74v37l64-37V37L64 74z" fill="#b8b8bb"/><path d="M0 37v37l64 37V74L0 37z" fill="#d2d2d4"/><path d="M0 37L64 0l64 37-64 37L0 37z" fill="#ececed"/><path d="M64 73.407l62.111-35.86.514.889-62.487 36.078h-.276L.743 38.072l.514-.89L64 73.407z" fill="#83838a"/><path d="M63.486 74h1.027v36h-1.027z" fill="#83838a"/><path d="M128 37v37l-64 37L0 74V37L64 0l64 37zM2.054 38.185v34.63L64 108.627l61.946-35.812v-34.63L64 2.373 2.054 38.185z" fill="#000000"/></svg><svg x="122" y="352" width="54" height="36" style="overflow: visible; cursor: default;"><rect transform="matrix(0.707 0.409 -0.707 0.409 0 0)" width="54" height="36" rx="5" ry="5" fill="#4286c5"/><text transform="matrix(0.707 0.409 -0.707 0.409 0 0)" font-family="Open Sans" text-anchor="middle" x="50%" font-weight="normal" font-size="20pt" y="80%" fill="#ffffff"><tspan>T2</tspan></text></svg></g></g><g opacity="1"><g id="b7c4f3c9-72a1-49e1-94d1-9111e8bc70ff" transform="translate(0 0)"><svg x="192" y="407" height="111" width="128" fill-rule="evenodd"><path d="M64 74v37l64-37V37L64 74z" fill="#b8b8bb"/><path d="M0 37v37l64 37V74L0 37z" fill="#d2d2d4"/><path d="M0 37L64 0l64 37-64 37L0 37z" fill="#ececed"/><path d="M64 73.407l62.111-35.86.514.889-62.487 36.078h-.276L.743 38.072l.514-.89L64 73.407z" fill="#83838a"/><path d="M63.486 74h1.027v36h-1.027z" fill="#83838a"/><path d="M128 37v37l-64 37L0 74V37L64 0l64 37zM2.054 38.185v34.63L64 108.627l61.946-35.812v-34.63L64 2.373 2.054 38.185z" fill="#000000"/></svg><svg x="250" y="426" width="54" height="36" style="overflow: visible; cursor: default;"><rect transform="matrix(0.707 0.409 -0.707 0.409 0 0)" width="54" height="36" rx="5" ry="5" fill="#4286c5"/><text transform="matrix(0.707 0.409 -0.707 0.409 0 0)" font-family="Open Sans" text-anchor="middle" x="50%" font-weight="normal" font-size="20pt" y="80%" fill="#ffffff"><tspan>T2</tspan></text></svg></g></g><g opacity="1"><g id="5f3d32c7-c4cd-45ef-8c93-ce492182fa83" transform="translate(0 0)"><svg x="-288" y="629" height="94" width="97" fill-rule="evenodd"><path d="M0 18.6v18.6l32.333 18.6h32.334L97 37.2V18.6L64.667 0H32.333L0 18.6z" fill="#ececed"/><path d="M64.667 55.8L97 37.2v37.2L64.667 93V55.8z" fill="#b8b8bb"/><path d="M32.333 55.8h32.334V93H32.333V55.8zM0 37.2v37.2L32.333 93V55.8L0 37.2z" fill="#d2d2d4"/><g fill="none" stroke="#83838a" stroke-width="1.04"><path d="M.955 37.877L32.333 55.8h32.334l31.378-17.923M32.333 55.8v36.211M64.667 55.8v36.574"/></g><path d="M97 18.6v55.8L64.667 93H32.333L0 74.4V18.6L32.333 0h32.334L97 18.6zM32.865 1.989L1.989 19.751v53.498l30.876 17.762h31.27l30.876-17.762V19.751L64.135 1.989h-31.27z" fill="#000000"/><path d="M69.912 15.583c11.818 6.798 11.818 17.836 0 24.635-11.817 6.798-31.007 6.798-42.824 0-11.818-6.799-11.818-17.837 0-24.635 11.817-6.799 31.007-6.799 42.824 0z" fill="#4286c5"/><path d="M49.584 14.774c1.824 1.049 1.824 2.753 0 3.802-1.824 1.05-4.786 1.05-6.61 0-1.824-1.049-1.824-2.753 0-3.802 1.824-1.05 4.786-1.05 6.61 0zM60.451 21.025c1.825 1.049 1.825 2.753 0 3.803-1.824 1.049-4.786 1.049-6.61 0-1.824-1.05-1.824-2.754 0-3.803s4.786-1.049 6.61 0zM71.319 27.276c1.824 1.05 1.824 2.754 0 3.803-1.825 1.049-4.787 1.049-6.611 0-1.824-1.049-1.824-2.753 0-3.803 1.824-1.049 4.786-1.049 6.611 0zM38.497 33.654c1.824 1.05 1.824 2.754 0 3.803-1.825 1.05-4.787 1.05-6.611 0-1.824-1.049-1.824-2.753 0-3.803 1.824-1.049 4.786-1.049 6.611 0z" fill="#ffffff"/><path d="M47.458 15.878c.453.26.393.717-.133 1.02-.526.303-1.32.337-1.773.076-.452-.26-.392-.717.133-1.019.526-.303 1.321-.337 1.773-.077z" fill="#ffffff"/><path d="M48.111 15.621c1.012.582 1.012 1.526 0 2.108-1.011.582-2.653.582-3.664 0-1.012-.582-1.012-1.526 0-2.108 1.011-.582 2.653-.582 3.664 0zM58.978 21.872c1.012.582 1.012 1.527 0 2.108-1.011.582-2.653.582-3.664 0-1.012-.581-1.012-1.526 0-2.108 1.011-.581 2.653-.581 3.664 0zM69.846 28.124c1.011.581 1.011 1.526 0 2.108-1.012.582-2.654.582-3.665 0-1.011-.582-1.011-1.527 0-2.108 1.011-.582 2.653-.582 3.665 0z" fill="#4286c5"/><path d="M37.024 34.502c1.011.582 1.011 1.526 0 2.108-1.012.582-2.654.582-3.665 0-1.011-.582-1.011-1.526 0-2.108 1.011-.582 2.653-.582 3.665 0z" fill="#ffffff"/><g fill="#ffffff"><path d="M52.301 25.172L37.719 33.56l.482.834 14.584-8.388-.484-.834z"/><path d="M46.993 26.089l6.654-1.146-4.324 5.168c.189-1.691-.757-3.313-2.33-4.022z" stroke="#ffffff" stroke-width=".36"/></g><g fill="#ffffff"><path d="M43.488 19.937l-6.057 13.797.886.387 6.056-13.798-.885-.386z"/><path d="M39.76 23.812l4.676-4.854-.405 6.716c-.855-1.474-2.582-2.221-4.271-1.862z" stroke="#ffffff" stroke-width=".36"/></g><g fill="#ffffff"><path d="M61.953 30.061l-23.985 3.483.14.955 23.985-3.486-.14-.952z"/><path d="M56.68 28.957l6.608 1.387-5.936 3.209c.804-1.503.526-3.358-.672-4.596h0z" stroke="#ffffff" stroke-width=".36"/></g><path d="M37.96 33.977l13.12-7.547M37.873 33.927l5.792-13.134M38.037 34.022l22.478-3.281" fill="#ffffff" stroke="#ffffff" stroke-width="1.93"/></svg></g></g></g><g pointer-events="auto"/><g pointer-events="auto"/><g pointer-events="auto"><g opacity="1"><g id="ce23b448-6d3d-41f5-b143-a79c4e5fda18" transform="translate(0 0)"><svg x="-112" y="435" overflow="visible"><text stroke="#ffffff" stroke-width="4" font-family="Open Sans" y="36.5" font-size="25pt" fill="#ff9800" font-weight="bold" transform="matrix(0.707 0.409 -0.707 0.409 0 0)" xml:space="preserve"><tspan x="8" dy="0">terraform-workshop-asg</tspan></text><text font-family="Open Sans" y="36.5" font-size="25pt" fill="#ff9800" font-weight="bold" transform="matrix(0.707 0.409 -0.707 0.409 0 0)" xml:space="preserve"><tspan x="8" dy="0">terraform-workshop-asg</tspan></text></svg></g></g><g opacity="1"><g id="ce0df08a-d0ec-43d6-8035-cc4dbeefef1d" transform="translate(0 0)"><svg x="-336" y="194" overflow="visible"><text stroke="#ffffff" stroke-width="4" font-family="Open Sans" y="36.5" font-size="25pt" fill="#8bc34a" font-weight="bold" transform="matrix(0.707 0.409 -0.707 0.409 0 0)" xml:space="preserve"><tspan x="8" dy="0">launch_configuration</tspan></text><text font-family="Open Sans" y="36.5" font-size="25pt" fill="#8bc34a" font-weight="bold" transform="matrix(0.707 0.409 -0.707 0.409 0 0)" xml:space="preserve"><tspan x="8" dy="0">launch_configuration</tspan></text></svg></g></g><g opacity="1"><g id="da546b49-42af-4576-a0d4-261f660bb296" transform="translate(0 0)"><svg x="192" y="185" overflow="visible"><text stroke="#ffffff" stroke-width="4" font-family="Open Sans" y="36.5" font-size="25pt" fill="#4286c5" font-weight="bold" transform="matrix(0.707 0.409 -0.707 0.409 0 0)" xml:space="preserve"><tspan x="8" dy="0">ramp-up-devops-psl</tspan></text><text font-family="Open Sans" y="36.5" font-size="25pt" fill="#4286c5" font-weight="bold" transform="matrix(0.707 0.409 -0.707 0.409 0 0)" xml:space="preserve"><tspan x="8" dy="0">ramp-up-devops-psl</tspan></text></svg></g></g><g opacity="1"><g id="09c8e92b-a9f9-4d74-9aa7-227a33662efb" transform="translate(0 0)"><svg x="112" y="176" overflow="visible"><text stroke="#ffffff" stroke-width="4" font-family="Open Sans" y="36.5" font-size="25pt" fill="#4286c5" font-weight="bold" transform="matrix(0.707 0.409 -0.707 0.409 0 0)" xml:space="preserve"><tspan x="8" dy="0">stiven.agudeloo/terraform.tfstate</tspan></text><text font-family="Open Sans" y="36.5" font-size="25pt" fill="#4286c5" font-weight="bold" transform="matrix(0.707 0.409 -0.707 0.409 0 0)" xml:space="preserve"><tspan x="8" dy="0">stiven.agudeloo/terraform.tfstate</tspan></text></svg></g></g><g opacity="1"><g id="0bead73f-d141-4116-882f-9ae71ebe122e" transform="translate(0 0)"><svg x="-176" y="472" overflow="visible"><text stroke="#ffffff" stroke-width="4" font-family="Open Sans" y="36.5" font-size="25pt" fill="#000000" font-weight="bold" transform="matrix(0.707 0.409 -0.707 0.409 0 0)" xml:space="preserve"><tspan x="8" dy="0">&lt;instabce_private_ip&gt;:5000</tspan></text><text font-family="Open Sans" y="36.5" font-size="25pt" fill="#000000" font-weight="bold" transform="matrix(0.707 0.409 -0.707 0.409 0 0)" xml:space="preserve"><tspan x="8" dy="0">&lt;instabce_private_ip&gt;:5000</tspan></text></svg></g></g><g opacity="1"><g id="1ad56f38-351c-4eff-8477-7be4d76d788d" transform="translate(0 0)"><svg x="-544" y="740" overflow="visible"><text stroke="#ffffff" stroke-width="4" font-family="Open Sans" y="36.5" font-size="25pt" fill="#000000" font-weight="bold" transform="matrix(0.707 0.409 -0.707 0.409 0 0)" xml:space="preserve"><tspan x="8" dy="0">&lt;elb_public_dns&gt;:80</tspan></text><text font-family="Open Sans" y="36.5" font-size="25pt" fill="#000000" font-weight="bold" transform="matrix(0.707 0.409 -0.707 0.409 0 0)" xml:space="preserve"><tspan x="8" dy="0">&lt;elb_public_dns&gt;:80</tspan></text></svg></g></g></g><g pointer-events="auto"><g/><g/><g/><g/><g/><g/><g/><g/><g/></g></g></svg>